<?xml version="1.0" standalone="no"?>
<!DOCTYPE svg PUBLIC "-//W3C//DTD SVG 20010904//EN"
 "http://www.w3.org/TR/2001/REC-SVG-20010904/DTD/svg10.dtd">
<svg version="1.0" xmlns="http://www.w3.org/2000/svg"
 width="480.000000pt" height="290.000000pt" viewBox="0 0 480.000000 290.000000"
 preserveAspectRatio="xMidYMid meet">

<g transform="translate(0.000000,290.000000) scale(0.100000,-0.100000)"
fill="#000000" stroke="none">
<path d="M3093 2006 c-141 -46 -228 -152 -253 -309 -13 -85 -6 -117 26 -117
23 0 24 3 24 65 0 170 119 304 286 321 71 8 119 -5 180 -47 l42 -29 6 26 c9
33 3 40 -57 71 -63 32 -186 41 -254 19z"/>
<path d="M3624 2006 c-23 -7 -52 -20 -65 -29 -21 -15 -24 -15 -41 -1 -43 40
-58 -1 -87 -247 -11 -90 -25 -222 -31 -294 -13 -169 -21 -238 -25 -233 -2 2
-11 46 -19 98 -20 122 -52 247 -71 277 -25 38 -74 31 -130 -17 l-46 -40 -179
0 c-153 0 -179 -2 -184 -16 -3 -9 -6 -18 -6 -20 0 -2 27 -4 59 -4 l60 0 30
-64 c36 -74 103 -168 175 -245 117 -123 354 -301 402 -301 29 0 175 99 284
192 105 91 219 222 260 299 l31 59 -29 0 c-25 0 -35 -9 -67 -62 -69 -112 -301
-328 -446 -416 l-36 -22 -99 67 c-173 118 -405 368 -429 465 l-7 25 98 2 c60
1 104 6 115 14 9 6 33 25 53 41 28 22 39 26 50 17 18 -15 41 -108 76 -313 15
-94 33 -175 39 -181 17 -17 43 3 53 38 4 15 14 114 23 219 21 261 57 559 65
549 5 -4 20 -98 34 -208 39 -294 61 -365 111 -365 32 0 55 45 85 167 12 51 28
97 35 103 11 9 24 2 59 -30 25 -23 60 -45 79 -49 54 -13 269 -4 279 11 15 24
8 28 -46 28 l-55 0 5 38 c3 20 7 45 9 55 7 35 -16 152 -39 202 -35 76 -88 130
-162 166 -55 27 -80 33 -147 36 -50 2 -98 -2 -123 -11z m243 -71 c126 -62 193
-208 169 -369 l-7 -46 -61 0 c-57 0 -62 2 -110 45 -39 35 -58 45 -84 45 -45 0
-60 -24 -91 -147 -34 -133 -38 -138 -57 -73 -16 52 -76 447 -76 496 0 26 28
48 88 70 54 21 164 10 229 -21z"/>
<path d="M1390 1569 l0 -70 -22 15 c-33 23 -56 20 -89 -13 -27 -27 -29 -35
-29 -106 0 -71 2 -79 29 -106 33 -32 57 -36 87 -14 25 19 34 19 34 0 0 -8 7
-15 15 -15 13 0 15 28 15 190 0 183 -1 190 -20 190 -18 0 -20 -7 -20 -71z
m-12 -91 c7 -7 12 -41 12 -83 0 -78 -9 -95 -51 -95 -39 0 -59 33 -59 95 0 62
20 95 59 95 15 0 32 -5 39 -12z"/>
<path d="M650 1440 c0 -152 2 -180 15 -180 12 0 15 25 17 143 l3 142 48 -142
c27 -79 54 -143 61 -143 6 0 32 61 56 135 24 74 48 135 53 135 5 0 8 -26 7
-57 -5 -144 0 -213 15 -213 13 0 15 27 15 180 l0 180 -24 0 c-22 0 -27 -11
-65 -132 -23 -73 -44 -139 -46 -146 -10 -27 -22 0 -65 137 -40 129 -45 141
-67 141 l-23 0 0 -180z"/>
<path d="M1510 1440 c0 -151 2 -180 15 -180 11 0 15 19 17 88 l3 87 75 0 75 0
3 -87 c2 -69 6 -88 17 -88 13 0 15 29 15 180 0 153 -2 180 -15 180 -12 0 -15
-15 -15 -75 l0 -75 -80 0 -80 0 0 75 c0 60 -3 75 -15 75 -13 0 -15 -27 -15
-180z"/>
<path d="M1070 1517 c-40 -20 -62 -73 -57 -138 6 -68 22 -96 64 -110 49 -16
126 12 109 40 -4 5 -19 3 -35 -5 -31 -15 -73 -11 -89 9 -5 7 -12 24 -14 39 -6
33 4 38 83 38 l59 0 0 35 c0 46 -17 80 -47 94 -30 14 -42 14 -73 -2z m70 -37
c11 -11 20 -29 20 -40 0 -18 -7 -20 -55 -20 -52 0 -55 1 -55 24 0 25 32 56 57
56 7 0 22 -9 33 -20z"/>
<path d="M1860 1517 c-40 -20 -62 -73 -56 -135 2 -30 12 -65 21 -78 19 -30 61
-47 92 -39 26 6 63 43 63 62 0 20 -17 16 -45 -13 -19 -19 -31 -23 -48 -18 -43
13 -48 23 -45 103 3 72 4 76 31 89 24 12 31 11 53 -2 13 -9 24 -23 24 -31 0
-8 7 -15 15 -15 32 0 14 55 -26 75 -34 18 -47 18 -79 2z"/>
<path d="M2094 1520 c-21 -8 -54 -46 -54 -62 0 -17 30 -7 40 13 9 16 19 19 48
17 34 -3 37 -6 40 -35 3 -29 0 -33 -21 -33 -38 0 -86 -20 -97 -40 -13 -24 -13
-66 0 -90 14 -26 65 -35 94 -16 21 13 25 13 30 1 3 -8 12 -15 21 -15 13 0 14
15 9 103 -7 134 -9 141 -39 155 -30 14 -42 14 -71 2z m76 -163 c0 -42 -15 -57
-57 -57 -27 0 -34 5 -39 27 -9 33 24 63 67 63 26 0 29 -3 29 -33z"/>
<path d="M2343 1515 c-14 -10 -24 -12 -28 -5 -3 5 -13 10 -21 10 -11 0 -14
-23 -14 -130 0 -109 2 -130 15 -130 17 0 20 29 16 123 -3 65 16 107 49 107 13
0 20 7 20 20 0 24 -8 25 -37 5z"/>
<path d="M2483 1520 c-33 -13 -54 -52 -60 -113 -11 -104 48 -165 132 -137 37
12 50 24 41 39 -4 5 -19 3 -36 -6 -43 -21 -82 -6 -96 38 -7 19 -10 36 -9 37 2
2 35 4 74 3 l71 0 0 39 c0 51 -16 85 -47 99 -28 13 -40 13 -70 1z m67 -40 c11
-11 20 -29 20 -40 0 -18 -7 -20 -55 -20 -52 0 -55 1 -55 24 0 25 32 56 57 56
7 0 22 -9 33 -20z"/>
</g>
</svg>
